<?xml version="1.0" encoding="iso-8859-1"?>
<!-- Generator: Adobe Illustrator 19.0.0, SVG Export Plug-In . SVG Version: 6.00 Build 0)  -->
<svg version="1.1" id="Layer_1" xmlns="http://www.w3.org/2000/svg" xmlns:xlink="http://www.w3.org/1999/xlink" x="0px" y="0px"
	 viewBox="0 0 498.584 498.584" style="enable-background:new 0 0 498.584 498.584;" xml:space="preserve">
<circle style="fill:#0578A0;" cx="286.584" cy="241.692" r="212"/>
<path style="fill:#006E8C;" d="M436.184,91.292c82.4,82.4,82.4,216.8,0,300c-83.2,82.4-216.8,82.4-300,0"/>
<g>
	
		<rect x="212.825" y="163.438" transform="matrix(-0.7071 -0.7071 0.7071 -0.7071 272.9469 490.3338)" style="fill:#82C60A;" width="50.4" height="50.4"/>
	<polygon style="fill:#82C60A;" points="282.584,99.292 322.584,75.292 362.584,99.292 362.584,148.092 322.584,172.092 
		282.584,148.092 	"/>
	<circle style="fill:#82C60A;" cx="317.784" cy="235.292" r="33.6"/>
	<circle style="fill:#82C60A;" cx="430.584" cy="212.892" r="12"/>
</g>
<g>
	<polyline style="fill:#5EA304;" points="237.784,152.892 273.784,188.092 237.784,224.092 	"/>
	<polyline style="fill:#5EA304;" points="322.584,75.292 362.584,99.292 362.584,148.092 322.584,172.092 	"/>
	<path style="fill:#5EA304;" d="M317.784,200.892c18.4,0,33.6,15.2,33.6,33.6s-14.4,34.4-33.6,34.4"/>
	<path style="fill:#5EA304;" d="M430.584,200.892c6.4,0,12,5.6,12,12s-5.6,12-12,12"/>
</g>
<path style="fill:#82C60A;" d="M82.584,45.692v-0.8l0,0V45.692c-24,59.2-86.4,72.8-82.4,143.2c2.4,40.8,42.4,64.8,82.4,88l0,0l0,0
	l0,0c48-24,80-47.2,82.4-88C168.984,118.492,106.584,104.892,82.584,45.692z"/>
<path style="fill:#5EA304;" d="M82.584,276.892L82.584,276.892L82.584,276.892L82.584,276.892c48-23.2,80-47.2,82.4-88
	c4-70.4-58.4-84-82.4-143.2v-0.8l0,0l0,0"/>
<g>
	<polygon style="fill:#74B208;" points="82.584,148.092 45.784,124.892 82.584,162.492 119.384,124.892 	"/>
	<polygon style="fill:#74B208;" points="82.584,225.692 45.784,202.492 82.584,239.292 119.384,202.492 	"/>
	<polygon style="fill:#74B208;" points="82.584,186.492 40.984,160.092 82.584,202.492 124.184,160.092 	"/>
</g>
<path style="fill:#EFDFAB;" d="M59.384,289.692c-3.2,3.2-5.6,11.2-7.2,11.2h-41.6v152h51.2c5.6,8,41.6,16,53.6,16h101.6h-0.8h114.4
	c12,0,21.6-12,21.6-24s-11.2-16-23.2-16h-86.4v-8h131.2c12,0,21.6-8.8,21.6-20.8s-9.6-19.2-21.6-19.2h-128.8v-8h154.4
	c12,0,21.6-8,21.6-20s-9.6-20-21.6-20h-155.2v-8h132c12,0,21.6-8,21.6-20s-9.6-20-21.6-20h-180h0.8h-32l28-27.2
	c4.8-4,12-29.6,10.4-40c-0.8-9.6-12-19.2-35.2,6.4l-100,60c-2.4,0.8-4.8,2.4-7.2,4"/>
<path style="fill:#DBC791;" d="M373.784,380.892h-128.8l0,0h-234.4v72h51.2c5.6,8,41.6,16,53.6,16h101.6h-0.8h114.4
	c12,0,21.6-12,21.6-24s-11.2-16-23.2-16h-86.4v-8h131.2c12,0,21.6-8.8,21.6-20.8S385.784,380.892,373.784,380.892z"/>
<g>
</g>
<g>
</g>
<g>
</g>
<g>
</g>
<g>
</g>
<g>
</g>
<g>
</g>
<g>
</g>
<g>
</g>
<g>
</g>
<g>
</g>
<g>
</g>
<g>
</g>
<g>
</g>
<g>
</g>
</svg>
