<svg xmlns="http://www.w3.org/2000/svg" height="595pt" version="1.1" viewBox="0 -35 595.238 595" width="595pt">
<g id="surface1">
<path d="M 9.917969 386.855469 C 9.917969 397.808594 18.796875 406.6875 29.75 406.6875 L 565.25 406.6875 C 576.203125 406.6875 585.082031 397.808594 585.082031 386.855469 L 585.082031 347.1875 L 9.917969 347.1875 Z M 9.917969 386.855469 " style=" stroke:none;fill-rule:nonzero;fill:rgb(100%,93.72549%,67.843137%);fill-opacity:1;" />
<path d="M 565.25 10.023438 L 29.75 10.023438 C 18.796875 10.023438 9.917969 18.902344 9.917969 29.855469 L 9.917969 347.1875 L 585.082031 347.1875 L 585.082031 29.855469 C 585.082031 18.902344 576.203125 10.023438 565.25 10.023438 Z M 456.167969 79.4375 C 483.550781 79.4375 505.75 101.636719 505.75 129.023438 C 505.75 156.40625 483.550781 178.605469 456.167969 178.605469 C 428.78125 178.605469 406.582031 156.40625 406.582031 129.023438 C 406.582031 101.636719 428.78125 79.4375 456.167969 79.4375 Z M 208.25 188.523438 L 49.582031 188.523438 L 49.582031 49.6875 L 208.25 49.6875 Z M 505.75 267.855469 C 505.75 278.808594 496.871094 287.6875 485.917969 287.6875 C 474.964844 287.6875 466.082031 278.808594 466.082031 267.855469 L 406.582031 267.855469 C 406.582031 278.808594 397.703125 287.6875 386.75 287.6875 C 375.796875 287.6875 366.917969 278.808594 366.917969 267.855469 L 337.167969 267.855469 L 337.167969 89.355469 L 337.167969 267.855469 L 366.917969 267.855469 C 366.917969 256.902344 375.796875 248.023438 386.75 248.023438 C 397.703125 248.023438 406.582031 256.902344 406.582031 267.855469 L 466.082031 267.855469 C 466.082031 256.902344 474.964844 248.023438 485.917969 248.023438 C 496.871094 248.023438 505.75 256.902344 505.75 267.855469 Z M 515.667969 218.273438 L 376.832031 218.273438 L 376.832031 138.9375 L 376.832031 218.273438 L 515.667969 218.273438 L 535.5 138.9375 Z M 515.667969 218.273438 " style=" stroke:none;fill-rule:nonzero;fill:rgb(20%,54.117647%,95.294118%);fill-opacity:1;" />
<path d="M 234.90625 495.9375 L 218.167969 495.9375 L 198.332031 515.773438 L 396.667969 515.773438 L 376.832031 495.9375 L 360.09375 495.9375 L 339.230469 406.6875 L 255.769531 406.6875 Z M 234.90625 495.9375 " style=" stroke:none;fill-rule:nonzero;fill:rgb(87.058824%,86.666667%,87.843137%);fill-opacity:1;" />
<path d="M 49.582031 49.6875 L 208.25 49.6875 L 208.25 188.523438 L 49.582031 188.523438 Z M 49.582031 49.6875 " style=" stroke:none;fill-rule:nonzero;fill:rgb(87.843137%,20%,32.156863%);fill-opacity:1;" />
<path d="M 406.582031 267.855469 C 406.582031 278.808594 397.703125 287.6875 386.75 287.6875 C 375.796875 287.6875 366.917969 278.808594 366.917969 267.855469 C 366.917969 256.902344 375.796875 248.023438 386.75 248.023438 C 397.703125 248.023438 406.582031 256.902344 406.582031 267.855469 Z M 406.582031 267.855469 " style=" stroke:none;fill-rule:nonzero;fill:rgb(100%,93.72549%,67.843137%);fill-opacity:1;" />
<path d="M 505.75 267.855469 C 505.75 278.808594 496.871094 287.6875 485.917969 287.6875 C 474.964844 287.6875 466.082031 278.808594 466.082031 267.855469 C 466.082031 256.902344 474.964844 248.023438 485.917969 248.023438 C 496.871094 248.023438 505.75 256.902344 505.75 267.855469 Z M 505.75 267.855469 " style=" stroke:none;fill-rule:nonzero;fill:rgb(100%,93.72549%,67.843137%);fill-opacity:1;" />
<path d="M 456.167969 178.605469 C 483.550781 178.605469 505.75 156.40625 505.75 129.023438 C 505.75 101.636719 483.550781 79.4375 456.167969 79.4375 C 428.78125 79.4375 406.582031 101.636719 406.582031 129.023438 C 406.582031 156.40625 428.78125 178.605469 456.167969 178.605469 Z M 456.167969 148.855469 L 485.917969 129.023438 L 456.167969 148.855469 L 426.417969 129.023438 Z M 456.167969 148.855469 " style=" stroke:none;fill-rule:nonzero;fill:rgb(87.843137%,20%,32.156863%);fill-opacity:1;" />
<path d="M 565.25 0.105469 L 29.75 0.105469 C 13.320312 0.105469 0 13.425781 0 29.855469 L 0 386.855469 C 0 403.285156 13.320312 416.605469 29.75 416.605469 L 243.265625 416.605469 L 227.089844 486.023438 L 218.164062 486.023438 C 215.535156 486.023438 213.015625 487.066406 211.15625 488.925781 L 191.320312 508.761719 C 187.449219 512.632812 187.449219 518.914062 191.324219 522.785156 C 193.183594 524.644531 195.703125 525.6875 198.332031 525.6875 L 396.667969 525.6875 C 402.144531 525.6875 406.582031 521.246094 406.582031 515.769531 C 406.582031 513.140625 405.535156 510.621094 403.675781 508.761719 L 383.84375 488.925781 C 381.984375 487.066406 379.464844 486.023438 376.832031 486.023438 L 367.90625 486.023438 L 351.683594 416.605469 L 565.25 416.605469 C 581.679688 416.605469 595 403.285156 595 386.855469 L 595 29.855469 C 595 13.425781 581.679688 0.105469 565.25 0.105469 Z M 29.75 19.9375 L 565.25 19.9375 C 570.726562 19.9375 575.167969 24.378906 575.167969 29.855469 L 575.167969 337.273438 L 19.832031 337.273438 L 19.832031 29.855469 C 19.832031 24.378906 24.273438 19.9375 29.75 19.9375 Z M 350.433594 498.199219 C 351.484375 502.683594 355.488281 505.855469 360.09375 505.855469 L 234.90625 505.855469 C 239.511719 505.859375 243.515625 502.6875 244.566406 498.199219 L 263.632812 416.605469 L 331.367188 416.605469 Z M 565.25 396.773438 L 29.75 396.773438 C 24.273438 396.773438 19.832031 392.332031 19.832031 386.855469 L 19.832031 357.105469 L 575.167969 357.105469 L 575.167969 386.855469 C 575.167969 392.332031 570.726562 396.773438 565.25 396.773438 Z M 565.25 396.773438 " style=" stroke:none;fill-rule:nonzero;fill:rgb(13.72549%,12.156863%,12.54902%);fill-opacity:1;" />
<path d="M 287.582031 367.023438 L 317.332031 367.023438 L 317.332031 386.855469 L 287.582031 386.855469 Z M 287.582031 367.023438 " style=" stroke:none;fill-rule:nonzero;fill:rgb(13.72549%,12.156863%,12.54902%);fill-opacity:1;" />
<path d="M 119 208.355469 L 198.332031 208.355469 L 198.332031 228.1875 L 119 228.1875 Z M 119 208.355469 " style=" stroke:none;fill-rule:nonzero;fill:rgb(13.72549%,12.156863%,12.54902%);fill-opacity:1;" />
<path d="M 69.417969 208.355469 L 109.082031 208.355469 L 109.082031 228.1875 L 69.417969 228.1875 Z M 69.417969 208.355469 " style=" stroke:none;fill-rule:nonzero;fill:rgb(13.72549%,12.156863%,12.54902%);fill-opacity:1;" />
<path d="M 39.667969 208.355469 L 59.5 208.355469 L 59.5 228.1875 L 39.667969 228.1875 Z M 39.667969 208.355469 " style=" stroke:none;fill-rule:nonzero;fill:rgb(13.72549%,12.156863%,12.54902%);fill-opacity:1;" />
<path d="M 109.082031 238.105469 L 198.332031 238.105469 L 198.332031 257.9375 L 109.082031 257.9375 Z M 109.082031 238.105469 " style=" stroke:none;fill-rule:nonzero;fill:rgb(13.72549%,12.156863%,12.54902%);fill-opacity:1;" />
<path d="M 39.667969 238.105469 L 99.167969 238.105469 L 99.167969 257.9375 L 39.667969 257.9375 Z M 39.667969 238.105469 " style=" stroke:none;fill-rule:nonzero;fill:rgb(13.72549%,12.156863%,12.54902%);fill-opacity:1;" />
<path d="M 39.667969 267.855469 L 99.167969 267.855469 L 99.167969 287.6875 L 39.667969 287.6875 Z M 39.667969 267.855469 " style=" stroke:none;fill-rule:nonzero;fill:rgb(13.72549%,12.156863%,12.54902%);fill-opacity:1;" />
<path d="M 109.082031 267.855469 L 148.75 267.855469 L 148.75 287.6875 L 109.082031 287.6875 Z M 109.082031 267.855469 " style=" stroke:none;fill-rule:nonzero;fill:rgb(13.72549%,12.156863%,12.54902%);fill-opacity:1;" />
<path d="M 158.667969 267.855469 L 198.332031 267.855469 L 198.332031 287.6875 L 158.667969 287.6875 Z M 158.667969 267.855469 " style=" stroke:none;fill-rule:nonzero;fill:rgb(13.72549%,12.156863%,12.54902%);fill-opacity:1;" />
<path d="M 39.667969 297.605469 L 198.332031 297.605469 L 198.332031 317.4375 L 39.667969 317.4375 Z M 39.667969 297.605469 " style=" stroke:none;fill-rule:nonzero;fill:rgb(13.72549%,12.156863%,12.54902%);fill-opacity:1;" />
<path d="M 49.582031 198.4375 L 208.25 198.4375 C 213.726562 198.4375 218.167969 194 218.167969 188.523438 L 218.167969 49.6875 C 218.167969 44.210938 213.726562 39.769531 208.25 39.769531 L 49.582031 39.769531 C 44.105469 39.769531 39.667969 44.210938 39.667969 49.6875 L 39.667969 188.523438 C 39.667969 194 44.105469 198.4375 49.582031 198.4375 Z M 59.5 59.605469 L 198.332031 59.605469 L 198.332031 178.605469 L 59.5 178.605469 Z M 59.5 59.605469 " style=" stroke:none;fill-rule:nonzero;fill:rgb(13.72549%,12.156863%,12.54902%);fill-opacity:1;" />
<path d="M 297.5 99.273438 L 327.25 99.273438 L 327.25 267.855469 C 327.25 273.332031 331.691406 277.773438 337.167969 277.773438 L 358.824219 277.773438 C 364.199219 293.195312 381.054688 301.34375 396.480469 295.96875 C 405.003906 293 411.707031 286.296875 414.675781 277.773438 L 457.992188 277.773438 C 463.363281 293.195312 480.222656 301.34375 495.644531 295.96875 C 504.171875 293 510.871094 286.296875 513.84375 277.773438 L 535.5 277.773438 C 540.976562 277.773438 545.417969 273.332031 545.417969 267.855469 C 545.417969 262.378906 540.976562 257.9375 535.5 257.9375 L 513.84375 257.9375 C 508.46875 242.515625 491.613281 234.371094 476.1875 239.742188 C 467.664062 242.710938 460.960938 249.414062 457.992188 257.9375 L 414.675781 257.9375 C 409.304688 242.515625 392.445312 234.371094 377.023438 239.742188 C 368.496094 242.710938 361.796875 249.414062 358.824219 257.9375 L 347.085938 257.9375 L 347.085938 89.355469 C 347.085938 83.878906 342.644531 79.4375 337.167969 79.4375 L 297.5 79.4375 C 292.023438 79.4375 287.582031 83.878906 287.582031 89.355469 C 287.582031 94.832031 292.023438 99.273438 297.5 99.273438 Z M 485.917969 257.9375 C 491.394531 257.9375 495.832031 262.378906 495.832031 267.855469 C 495.832031 273.332031 491.394531 277.773438 485.917969 277.773438 C 480.441406 277.773438 476 273.332031 476 267.855469 C 476 262.378906 480.441406 257.9375 485.917969 257.9375 Z M 386.75 257.9375 C 392.226562 257.9375 396.667969 262.378906 396.667969 267.855469 C 396.667969 273.332031 392.226562 277.773438 386.75 277.773438 C 381.273438 277.773438 376.832031 273.332031 376.832031 267.855469 C 376.832031 262.378906 381.273438 257.9375 386.75 257.9375 Z M 386.75 257.9375 " style=" stroke:none;fill-rule:nonzero;fill:rgb(13.72549%,12.156863%,12.54902%);fill-opacity:1;" />
<path d="M 376.832031 228.1875 L 515.667969 228.1875 C 520.21875 228.1875 524.183594 225.089844 525.285156 220.671875 L 545.117188 141.339844 C 546.445312 136.023438 543.210938 130.640625 537.898438 129.316406 C 537.113281 129.121094 536.308594 129.023438 535.5 129.023438 L 515.667969 129.023438 C 515.667969 96.160156 489.027344 69.519531 456.167969 69.519531 C 423.304688 69.519531 396.667969 96.160156 396.667969 129.023438 L 376.832031 129.023438 C 371.355469 129.023438 366.917969 133.460938 366.917969 138.9375 L 366.917969 218.273438 C 366.917969 223.75 371.355469 228.1875 376.832031 228.1875 Z M 495.632812 130.9375 C 495.863281 129.734375 495.863281 128.5 495.632812 127.296875 C 495.632812 127.882812 495.8125 128.425781 495.8125 129.023438 C 495.8125 129.617188 495.675781 130.292969 495.632812 130.9375 Z M 450.664062 157.105469 C 450.792969 157.195312 450.941406 157.214844 451.070312 157.292969 C 451.199219 157.375 451.335938 157.511719 451.488281 157.601562 C 451.898438 157.792969 452.320312 157.957031 452.757812 158.089844 C 453.023438 158.1875 453.273438 158.316406 453.539062 158.386719 C 454.375 158.628906 455.238281 158.753906 456.109375 158.761719 L 456.214844 158.761719 C 457.089844 158.75 457.957031 158.625 458.792969 158.386719 C 459.0625 158.316406 459.300781 158.1875 459.566406 158.097656 C 460.160156 157.882812 460.730469 157.613281 461.273438 157.292969 C 461.402344 157.214844 461.542969 157.183594 461.671875 157.105469 L 491.421875 137.273438 C 493.605469 135.816406 495.117188 133.550781 495.632812 130.976562 C 494.65625 152.773438 476.195312 169.652344 454.394531 168.671875 C 433.96875 167.757812 417.613281 151.402344 416.699219 130.976562 C 417.214844 133.550781 418.730469 135.816406 420.914062 137.273438 Z M 456.167969 89.355469 C 477.277344 89.429688 494.632812 106.03125 495.644531 127.117188 C 494.59375 121.742188 489.382812 118.238281 484.007812 119.292969 C 482.722656 119.542969 481.5 120.046875 480.414062 120.773438 L 466.082031 130.332031 L 466.082031 109.1875 C 466.082031 103.710938 461.644531 99.269531 456.167969 99.269531 C 450.691406 99.269531 446.25 103.710938 446.25 109.1875 L 446.25 130.332031 L 431.921875 120.773438 C 427.363281 117.734375 421.207031 118.964844 418.167969 123.523438 C 417.441406 124.613281 416.941406 125.835938 416.6875 127.117188 C 417.703125 106.03125 435.054688 89.429688 456.167969 89.355469 Z M 416.679688 127.296875 C 416.449219 128.5 416.449219 129.734375 416.679688 130.9375 C 416.679688 130.292969 416.480469 129.675781 416.480469 129.023438 C 416.480469 128.367188 416.648438 127.882812 416.679688 127.296875 Z M 386.75 148.855469 L 400.136719 148.855469 C 411.035156 179.800781 444.949219 196.054688 475.894531 185.15625 C 492.867188 179.179688 506.21875 165.832031 512.195312 148.855469 L 522.796875 148.855469 L 507.921875 208.355469 L 386.75 208.355469 Z M 386.75 148.855469 " style=" stroke:none;fill-rule:nonzero;fill:rgb(13.72549%,12.156863%,12.54902%);fill-opacity:1;" />
</g>
</svg>