<?xml version="1.0" encoding="iso-8859-1"?>
<!-- Generator: Adobe Illustrator 19.0.0, SVG Export Plug-In . SVG Version: 6.00 Build 0)  -->
<svg version="1.1" id="Capa_1" xmlns="http://www.w3.org/2000/svg" xmlns:xlink="http://www.w3.org/1999/xlink" x="0px" y="0px"
	 viewBox="0 0 512 512" style="enable-background:new 0 0 512 512;" xml:space="preserve">
<circle style="fill:#EC5353;" cx="256" cy="256" r="256"/>
<path style="fill:#D13135;" d="M269.932,511.619c119.901-6.432,217.88-95.361,238.192-211.045L405.053,197.502L70,307l20.498,20.498
	l-3.204,1.483L269.932,511.619z"/>
<g>
	<circle style="fill:#595959;" cx="106.08" cy="310.42" r="26.417"/>
	<circle style="fill:#595959;" cx="158.92" cy="310.42" r="26.417"/>
</g>
<g>
	<circle style="fill:#303030;" cx="355.75" cy="310.42" r="26.417"/>
	<circle style="fill:#303030;" cx="408.58" cy="310.42" r="26.417"/>
</g>
<path style="fill:#F0F0F0;" d="M349.25,169H70v138h382v-35.754c0-17.552-7.035-34.373-19.531-46.699l-37.155-36.65
	C383.04,175.788,366.492,169,349.25,169z"/>
<path style="fill:#E0E0E0;" d="M452,271.246c0-17.552-7.035-34.373-19.531-46.699l-37.155-36.65
	C383.04,175.788,366.492,169,349.25,169h-93.678v138H452V271.246z"/>
<path style="fill:#FCD748;" d="M398.833,289H70v-27h328.833c7.456,0,13.5,6.044,13.5,13.5l0,0
	C412.333,282.956,406.289,289,398.833,289z"/>
<path style="fill:#FABF40;" d="M398.833,262H255.571v27h143.262c7.456,0,13.5-6.044,13.5-13.5S406.289,262,398.833,262z"/>
<path style="fill:#1D67BC;" d="M342.333,210.667L342.333,210.667c0,13.439,10.895,24.333,24.333,24.333h74.397
	c-2.481-3.742-5.349-7.252-8.595-10.453l-37.155-36.65c-0.543-0.536-1.105-1.048-1.665-1.563h-26.984
	C353.228,186.333,342.333,197.228,342.333,210.667z"/>
<path style="fill:#2789E1;" d="M70,235h210c13.439,0,24.333-10.894,24.333-24.333l0,0c0-13.439-10.894-24.333-24.333-24.333H70V235z
	"/>
<path style="fill:#1D67BC;" d="M280,186.333h-24.429V235H280c13.439,0,24.333-10.894,24.333-24.333l0,0
	C304.333,197.228,293.439,186.333,280,186.333z"/>
<g>
</g>
<g>
</g>
<g>
</g>
<g>
</g>
<g>
</g>
<g>
</g>
<g>
</g>
<g>
</g>
<g>
</g>
<g>
</g>
<g>
</g>
<g>
</g>
<g>
</g>
<g>
</g>
<g>
</g>
</svg>
